<svg width="252" height="168" viewBox="0 0 252 168" fill="none" xmlns="http://www.w3.org/2000/svg">
<path d="M252 146.838H0V146.95H252V146.838Z" fill="#EBEBEB"/>
<path d="M226.747 154.031H210.055V154.142H226.747V154.031Z" fill="#EBEBEB"/>
<path d="M166.934 155.246H162.555V155.358H166.934V155.246Z" fill="#EBEBEB"/>
<path d="M209.555 149.882H199.883V149.994H209.555V149.882Z" fill="#EBEBEB"/>
<path d="M48.2053 150.633H26.4375V150.745H48.2053V150.633Z" fill="#EBEBEB"/>
<path d="M55.8856 150.633H52.6953V150.745H55.8856V150.633Z" fill="#EBEBEB"/>
<path d="M113.473 152.52H66.2578V152.631H113.473V152.52Z" fill="#EBEBEB"/>
<path d="M119.448 126.901H22.1306C21.3682 126.9 20.6375 126.631 20.0989 126.152C19.5603 125.674 19.2578 125.025 19.2578 124.349V3.0169C19.2644 2.3446 19.5699 1.70178 20.1078 1.22806C20.6457 0.754334 21.3726 0.487968 22.1306 0.486816H119.448C120.211 0.486816 120.943 0.755733 121.483 1.23441C122.023 1.71308 122.326 2.3623 122.326 3.03925V124.349C122.326 125.026 122.023 125.675 121.483 126.154C120.943 126.632 120.211 126.901 119.448 126.901ZM22.1306 0.576219C21.4017 0.577403 20.703 0.835067 20.188 1.29265C19.673 1.75024 19.3838 2.37036 19.3838 3.0169V124.349C19.3838 124.996 19.673 125.616 20.188 126.073C20.703 126.531 21.4017 126.788 22.1306 126.79H119.448C120.177 126.788 120.877 126.531 121.392 126.073C121.908 125.616 122.198 124.996 122.2 124.349V3.0169C122.198 2.36995 121.908 1.74984 121.392 1.29238C120.877 0.834922 120.177 0.5774 119.448 0.576219H22.1306Z" fill="#EBEBEB"/>
<path d="M228.466 126.901H131.143C130.381 126.9 129.649 126.631 129.11 126.153C128.571 125.674 128.267 125.026 128.266 124.349V3.0169C128.274 2.3442 128.58 1.70138 129.119 1.22778C129.658 0.754177 130.385 0.487956 131.143 0.486816H228.466C229.223 0.489143 229.949 0.756028 230.485 1.22963C231.022 1.70322 231.327 2.34538 231.334 3.0169V124.349C231.334 125.024 231.032 125.672 230.494 126.151C229.957 126.629 229.227 126.899 228.466 126.901ZM131.143 0.576219C130.414 0.5774 129.715 0.834922 129.199 1.29238C128.683 1.74984 128.393 2.36995 128.392 3.0169V124.349C128.393 124.996 128.683 125.616 129.199 126.073C129.715 126.531 130.414 126.788 131.143 126.79H228.466C229.195 126.788 229.894 126.531 230.41 126.073C230.926 125.616 231.216 124.996 231.218 124.349V3.0169C231.216 2.36995 230.926 1.74984 230.41 1.29238C229.894 0.834922 229.195 0.5774 228.466 0.576219H131.143Z" fill="#EBEBEB"/>
<path d="M43.033 130.491C43.033 130.312 43.7134 112.753 46.9339 109.978C50.0638 107.295 53.6573 109.875 53.8085 109.978L54.1311 109.633C54.0907 109.607 50.0335 106.67 46.5711 109.633C43.2043 112.534 42.5391 129.722 42.5391 130.451L43.033 130.491Z" fill="#E0E0E0"/>
<path d="M42.7581 133.937C42.7581 133.732 44.9556 112.861 36.3624 104.113L35.9844 104.408C44.4365 113.008 42.2793 133.687 42.2541 133.911L42.7581 133.937Z" fill="#E0E0E0"/>
<path d="M43.078 131.734L43.582 131.702C43.582 131.465 41.9036 107.975 48.2036 102.834L47.866 102.504C41.3795 107.792 43.0024 130.755 43.078 131.734Z" fill="#E0E0E0"/>
<path d="M42.2565 131.72H42.7605C42.7605 131.072 42.5539 115.856 37.6752 113.393C37.2125 113.128 36.6853 112.965 36.1374 112.918C35.5895 112.871 35.0368 112.94 34.5252 113.12C31.5768 114.202 30.1152 118.855 30.0547 119.052L30.5587 119.173C30.5587 119.123 32.0152 114.533 34.7318 113.536C35.1732 113.382 35.6495 113.325 36.1211 113.367C36.5927 113.41 37.046 113.552 37.4433 113.782C42.0499 116.111 42.2565 131.564 42.2565 131.72Z" fill="#E0E0E0"/>
<path d="M44.1515 131.729L44.6555 131.702C44.6555 131.586 43.9197 119.678 47.5435 115.485C48.4204 114.474 49.3931 113.983 50.4011 114.027C52.775 114.175 54.7658 117.255 54.7859 117.286L55.2244 117.067C55.1387 116.929 53.0824 113.746 50.4364 113.58C49.2571 113.504 48.1533 114.027 47.1655 115.194C43.4056 119.539 44.1213 131.233 44.1515 131.729Z" fill="#E0E0E0"/>
<path d="M43.3436 133.347C43.4394 132.194 45.7124 105.007 41.7157 100.219L41.3125 100.483C45.1933 105.141 42.8648 133.034 42.8245 133.316L43.3436 133.347Z" fill="#E0E0E0"/>
<path d="M33.4383 115.856C33.4383 115.856 35.8374 116.638 35.1217 118.489C34.406 120.339 26.8359 123.379 26.8359 123.379C26.8359 123.379 23.6607 120.8 26.5738 116.607C29.487 112.414 33.3728 114.533 33.4383 115.856Z" fill="#EBEBEB"/>
<path d="M43.8514 112.333C43.8514 112.333 41.3314 112.239 41.16 114.188C40.9887 116.137 46.704 121.533 46.704 121.533C46.704 121.533 50.736 120.236 49.8843 115.369C49.0325 110.501 44.4915 111.135 43.8514 112.333Z" fill="#EBEBEB"/>
<path d="M46.0077 103C46.0077 103 44.3092 102.839 44.4453 101.918C44.5813 100.997 51.0577 98.6369 54.8781 102.459C54.8781 102.459 52.4337 106.187 48.8956 106.236C45.3575 106.285 46.0077 103 46.0077 103Z" fill="#EBEBEB"/>
<path d="M42.8361 100.769C42.8361 100.769 44.3784 101.426 44.8118 100.586C45.2453 99.7455 41.1578 94.6943 35.634 96.1471C35.634 96.1471 35.4878 100.461 38.4614 102.159C41.435 103.858 42.8361 100.769 42.8361 100.769Z" fill="#EBEBEB"/>
<path d="M50.9075 115.109C50.9075 115.109 49.7332 114.269 51.0033 113.862C52.2734 113.455 58.4827 113.567 58.5633 119.03C58.5633 119.03 51.3259 120.093 50.4287 118.015C49.5316 115.936 50.9075 115.109 50.9075 115.109Z" fill="#EBEBEB"/>
<path d="M36.1273 102.852C36.1273 102.852 37.3016 102.012 36.0366 101.601C34.7715 101.189 28.5522 101.31 28.4766 106.768C28.4766 106.768 35.719 107.836 36.6111 105.758C37.5032 103.679 36.1273 102.852 36.1273 102.852Z" fill="#EBEBEB"/>
<path d="M39.9553 107.26C39.9553 107.26 40.0611 106.241 39.1287 106.638C38.1963 107.036 34.9607 110.143 38.3173 113.084C38.3173 113.084 42.8533 110.112 42.0267 108.565C41.2002 107.018 39.9553 107.26 39.9553 107.26Z" fill="#EBEBEB"/>
<path d="M51.945 108.717C51.945 108.717 51.2394 107.903 52.2675 107.801C53.2957 107.698 57.9023 108.788 56.8287 112.87C56.8287 112.87 51.2192 112.494 50.9773 110.8C50.7354 109.106 51.945 108.717 51.945 108.717Z" fill="#EBEBEB"/>
<path d="M32.9905 146.856H52.2433L54.3198 128.162H30.9141L32.9905 146.856Z" fill="#F0F0F0"/>
<path d="M29.8895 130.227H55.3516V126.101H29.8895V130.227Z" fill="#E6E6E6"/>
<path d="M208.77 130.491C208.77 130.312 208.095 112.753 204.874 109.978C201.744 107.295 198.146 109.875 197.999 109.978L197.672 109.633C197.717 109.607 201.769 106.67 205.232 109.633C208.599 112.534 209.264 129.722 209.264 130.451L208.77 130.491Z" fill="#E0E0E0"/>
<path d="M209.041 133.937C209.041 133.732 206.843 112.861 215.436 104.113L215.814 104.408C207.362 113.008 209.519 133.687 209.545 133.911L209.041 133.937Z" fill="#E0E0E0"/>
<path d="M208.727 131.734L208.223 131.702C208.223 131.465 209.907 107.975 203.602 102.834L203.944 102.504C210.426 107.792 208.803 130.755 208.727 131.734Z" fill="#E0E0E0"/>
<path d="M209.551 131.72H209.047C209.047 131.072 209.254 115.856 214.127 113.393C214.591 113.128 215.119 112.965 215.668 112.918C216.216 112.871 216.77 112.94 217.282 113.12C220.231 114.202 221.692 118.855 221.753 119.052L221.249 119.173C221.249 119.123 219.792 114.533 217.076 113.536C216.634 113.382 216.158 113.325 215.686 113.368C215.215 113.41 214.761 113.552 214.364 113.782C209.752 116.111 209.551 131.564 209.551 131.72Z" fill="#E0E0E0"/>
<path d="M207.646 131.729L207.142 131.702C207.142 131.586 207.878 119.678 204.255 115.485C203.378 114.466 202.42 113.983 201.417 114.045C199.043 114.193 197.052 117.273 197.032 117.304L196.594 117.085C196.679 116.947 198.736 113.764 201.382 113.598C202.561 113.522 203.665 114.045 204.653 115.212C208.392 119.539 207.682 131.233 207.646 131.729Z" fill="#E0E0E0"/>
<path d="M208.442 133.347C208.342 132.194 206.074 105.007 210.07 100.219L210.474 100.483C206.588 105.141 208.921 133.034 208.962 133.316L208.442 133.347Z" fill="#E0E0E0"/>
<path d="M218.371 115.856C218.371 115.856 215.972 116.638 216.688 118.489C217.404 120.339 224.974 123.379 224.974 123.379C224.974 123.379 228.149 120.8 225.231 116.607C222.313 112.414 218.432 114.533 218.371 115.856Z" fill="#EBEBEB"/>
<path d="M207.955 112.333C207.955 112.333 210.505 112.239 210.651 114.188C210.797 116.137 205.107 121.533 205.107 121.533C205.107 121.533 201.075 120.236 201.932 115.369C202.789 110.501 207.32 111.135 207.955 112.333Z" fill="#EBEBEB"/>
<path d="M205.792 103C205.792 103 207.491 102.839 207.355 101.918C207.219 100.997 200.742 98.6369 196.922 102.459C196.922 102.459 199.366 106.187 202.904 106.236C206.442 106.285 205.792 103 205.792 103Z" fill="#EBEBEB"/>
<path d="M208.955 100.769C208.955 100.769 207.418 101.426 206.985 100.586C206.551 99.7455 210.639 94.6943 216.162 96.1471C216.162 96.1471 216.309 100.461 213.335 102.159C210.361 103.858 208.955 100.769 208.955 100.769Z" fill="#EBEBEB"/>
<path d="M200.914 115.109C200.914 115.109 202.088 114.269 200.818 113.862C199.548 113.455 193.333 113.567 193.258 119.03C193.258 119.03 200.495 120.093 201.392 118.015C202.289 115.936 200.914 115.109 200.914 115.109Z" fill="#EBEBEB"/>
<path d="M215.675 102.852C215.675 102.852 214.501 102.012 215.766 101.601C217.031 101.189 223.25 101.31 223.326 106.768C223.326 106.768 216.084 107.836 215.191 105.758C214.299 103.679 215.675 102.852 215.675 102.852Z" fill="#EBEBEB"/>
<path d="M211.839 107.26C211.839 107.26 211.738 106.241 212.665 106.638C213.593 107.036 216.839 110.143 213.482 113.084C213.482 113.084 208.946 110.112 209.773 108.565C210.599 107.018 211.839 107.26 211.839 107.26Z" fill="#EBEBEB"/>
<path d="M199.855 108.717C199.855 108.717 200.56 107.903 199.532 107.801C198.504 107.698 193.898 108.788 194.996 112.87C194.996 112.87 200.606 112.494 200.848 110.8C201.09 109.106 199.855 108.717 199.855 108.717Z" fill="#EBEBEB"/>
<path d="M218.809 146.856H199.561L197.484 128.162H220.89L218.809 146.856Z" fill="#F0F0F0"/>
<path d="M221.923 126.097H196.461V130.223H221.923V126.097Z" fill="#E6E6E6"/>
<path d="M119.822 33.0157H68.5547V124.447H119.822V33.0157Z" fill="#FAFAFA"/>
<path d="M121.003 31.7731H67.3672V36.2611H121.003V31.7731Z" fill="#F0F0F0"/>
<path d="M121.003 36.7572H67.3672V39.0012H121.003V36.7572Z" fill="#F0F0F0"/>
<path d="M121.003 40.0875H67.3672V42.3315H121.003V40.0875Z" fill="#F0F0F0"/>
<path d="M121.003 43.4177H67.3672V45.6617H121.003V43.4177Z" fill="#F0F0F0"/>
<path d="M121.003 46.7479H67.3672V48.9919H121.003V46.7479Z" fill="#F0F0F0"/>
<path d="M121.003 50.0737H67.3672V52.3177H121.003V50.0737Z" fill="#F0F0F0"/>
<path d="M121.003 53.4039H67.3672V55.6479H121.003V53.4039Z" fill="#F0F0F0"/>
<path d="M121.003 56.7341H67.3672V58.9781H121.003V56.7341Z" fill="#F0F0F0"/>
<path d="M121.003 60.0645H67.3672V62.3084H121.003V60.0645Z" fill="#F0F0F0"/>
<path d="M121.003 63.3947H67.3672V65.6386H121.003V63.3947Z" fill="#F0F0F0"/>
<path d="M121.003 66.7249H67.3672V68.9688H121.003V66.7249Z" fill="#F0F0F0"/>
<path d="M121.003 70.0507H67.3672V72.2947H121.003V70.0507Z" fill="#F0F0F0"/>
<path d="M121.003 73.3809H67.3672V75.6248H121.003V73.3809Z" fill="#F0F0F0"/>
<path d="M121.003 76.7111H67.3672V78.955H121.003V76.7111Z" fill="#F0F0F0"/>
<path d="M121.003 80.0413H67.3672V82.2853H121.003V80.0413Z" fill="#F0F0F0"/>
<path d="M121.003 83.3716H67.3672V85.6156H121.003V83.3716Z" fill="#F0F0F0"/>
<path d="M121.003 86.6973H67.3672V88.9413H121.003V86.6973Z" fill="#F0F0F0"/>
<path d="M121.003 90.0275H67.3672V92.2715H121.003V90.0275Z" fill="#F0F0F0"/>
<path d="M121.003 93.3577H67.3672V95.6017H121.003V93.3577Z" fill="#F0F0F0"/>
<path d="M121.003 96.6879H67.3672V98.9319H121.003V96.6879Z" fill="#F0F0F0"/>
<path d="M121.003 100.018H67.3672V102.262H121.003V100.018Z" fill="#F0F0F0"/>
<path d="M121.003 103.348H67.3672V105.592H121.003V103.348Z" fill="#F0F0F0"/>
<path d="M121.003 106.674H67.3672V108.918H121.003V106.674Z" fill="#F0F0F0"/>
<path d="M121.003 110.004H67.3672V112.248H121.003V110.004Z" fill="#F0F0F0"/>
<path d="M121.003 113.335H67.3672V115.579H121.003V113.335Z" fill="#F0F0F0"/>
<path d="M121.003 116.665H67.3672V118.909H121.003V116.665Z" fill="#F0F0F0"/>
<path d="M121.003 119.995H67.3672V122.239H121.003V119.995Z" fill="#F0F0F0"/>
<path d="M121.003 123.321H67.3672V125.565H121.003V123.321Z" fill="#F0F0F0"/>
<path d="M183.447 33.0157H132.18V124.447H183.447V33.0157Z" fill="#FAFAFA"/>
<path d="M184.628 31.7731H130.992V36.2611H184.628V31.7731Z" fill="#F0F0F0"/>
<path d="M184.628 36.7572H130.992V37.1685H184.628V36.7572Z" fill="#F0F0F0"/>
<path d="M184.628 37.6959H130.992V38.1072H184.628V37.6959Z" fill="#F0F0F0"/>
<path d="M184.628 38.6302H130.992V39.0415H184.628V38.6302Z" fill="#F0F0F0"/>
<path d="M184.628 39.569H130.992V39.9802H184.628V39.569Z" fill="#F0F0F0"/>
<path d="M184.628 40.5032H130.992V40.9144H184.628V40.5032Z" fill="#F0F0F0"/>
<path d="M184.628 41.4419H130.992V41.8531H184.628V41.4419Z" fill="#F0F0F0"/>
<path d="M184.628 42.3761H130.992V42.7873H184.628V42.3761Z" fill="#F0F0F0"/>
<path d="M184.628 43.3148H130.992V43.7261H184.628V43.3148Z" fill="#F0F0F0"/>
<path d="M184.628 44.2535H130.992V44.6648H184.628V44.2535Z" fill="#F0F0F0"/>
<path d="M184.628 45.1879H130.992V45.5991H184.628V45.1879Z" fill="#F0F0F0"/>
<path d="M184.628 46.1266H130.992V46.5378H184.628V46.1266Z" fill="#F0F0F0"/>
<path d="M184.628 47.0608H130.992V47.472H184.628V47.0608Z" fill="#F0F0F0"/>
<path d="M184.628 47.9995H130.992V48.4108H184.628V47.9995Z" fill="#F0F0F0"/>
<path d="M184.628 48.9338H130.992V49.3451H184.628V48.9338Z" fill="#F0F0F0"/>
<path d="M184.628 49.8726H130.992V50.2838H184.628V49.8726Z" fill="#F0F0F0"/>
<path d="M184.628 50.8113H130.992V51.2225H184.628V50.8113Z" fill="#F0F0F0"/>
<path d="M184.628 51.7455H130.992V52.1567H184.628V51.7455Z" fill="#F0F0F0"/>
<path d="M184.628 52.6842H130.992V53.0955H184.628V52.6842Z" fill="#F0F0F0"/>
<path d="M133.553 20.0288C134.23 16.3321 131.399 12.8488 127.231 12.2487C123.063 11.6487 119.136 14.159 118.459 17.8558C117.783 21.5525 120.613 25.0358 124.781 25.6358C128.949 26.2359 132.877 23.7255 133.553 20.0288Z" fill="#F0F0F0"/>
<path d="M132.424 19.8661C132.999 16.7226 130.592 13.7605 127.048 13.2503C123.504 12.74 120.164 14.8747 119.589 18.0183C119.013 21.1618 121.42 24.1239 124.964 24.6341C128.509 25.1444 131.848 23.0097 132.424 19.8661Z" fill="#FAFAFA"/>
<path d="M125.696 14.9834V19.0154L122.688 17.5045" fill="#F0F0F0"/>
<path d="M125.696 14.9834V19.0154L122.688 17.5045" stroke="#E0E0E0" stroke-width="2" stroke-linecap="round" stroke-linejoin="round"/>
<path d="M126.002 167.025C179.971 167.025 223.722 164.76 223.722 161.965C223.722 159.17 179.971 156.905 126.002 156.905C72.0322 156.905 28.2812 159.17 28.2812 161.965C28.2812 164.76 72.0322 167.025 126.002 167.025Z" fill="#F5F5F5"/>
<path opacity="0.5" d="M220.993 44.6337H128.902C127.886 44.6337 127.062 45.3642 127.062 46.2653V135.426C127.062 136.327 127.886 137.058 128.902 137.058H220.993C222.009 137.058 222.833 136.327 222.833 135.426V46.2653C222.833 45.3642 222.009 44.6337 220.993 44.6337Z" fill="#407BFF"/>
<path d="M217.97 42.8456H125.879C124.863 42.8456 124.039 43.5761 124.039 44.4772V133.638C124.039 134.539 124.863 135.269 125.879 135.269H217.97C218.986 135.269 219.809 134.539 219.809 133.638V44.4772C219.809 43.5761 218.986 42.8456 217.97 42.8456Z" fill="#407BFF"/>
<path opacity="0.8" d="M217.97 42.8456H125.879C124.863 42.8456 124.039 43.5761 124.039 44.4772V133.638C124.039 134.539 124.863 135.269 125.879 135.269H217.97C218.986 135.269 219.809 134.539 219.809 133.638V44.4772C219.809 43.5761 218.986 42.8456 217.97 42.8456Z" fill="white"/>
<path opacity="0.5" d="M95.3049 42.4478H48.574C47.558 42.4478 46.7344 43.1782 46.7344 44.0793V119.83C46.7344 120.731 47.558 121.461 48.574 121.461H95.3049C96.3208 121.461 97.1445 120.731 97.1445 119.83V44.0793C97.1445 43.1782 96.3208 42.4478 95.3049 42.4478Z" fill="#407BFF"/>
<path d="M92.2814 39.7656H45.5505C44.5346 39.7656 43.7109 40.4961 43.7109 41.3972V117.148C43.7109 118.049 44.5346 118.779 45.5505 118.779H92.2814C93.2974 118.779 94.121 118.049 94.121 117.148V41.3972C94.121 40.4961 93.2974 39.7656 92.2814 39.7656Z" fill="#407BFF"/>
<path opacity="0.8" d="M92.2814 39.7656H45.5505C44.5346 39.7656 43.7109 40.4961 43.7109 41.3972V117.148C43.7109 118.049 44.5346 118.779 45.5505 118.779H92.2814C93.2974 118.779 94.121 118.049 94.121 117.148V41.3972C94.121 40.4961 93.2974 39.7656 92.2814 39.7656Z" fill="white"/>
<path d="M218.271 16.7178H45.6513C44.5797 16.7178 43.7109 17.4883 43.7109 18.4388V25.3943C43.7109 26.3447 44.5797 27.1152 45.6513 27.1152H218.271C219.343 27.1152 220.212 26.3447 220.212 25.3943V18.4388C220.212 17.4883 219.343 16.7178 218.271 16.7178Z" fill="#407BFF"/>
<path opacity="0.6" d="M202.299 21.9165C202.294 22.3125 202.157 22.6983 201.906 23.0254C201.654 23.3525 201.299 23.6063 200.885 23.7548C200.471 23.9033 200.017 23.9399 199.58 23.8599C199.142 23.78 198.741 23.5871 198.427 23.3055C198.113 23.0239 197.9 22.6663 197.815 22.2776C197.73 21.8889 197.776 21.4865 197.948 21.121C198.12 20.7556 198.41 20.4434 198.782 20.2238C199.153 20.0043 199.59 19.8871 200.036 19.8871C200.335 19.8883 200.631 19.9417 200.907 20.0444C201.182 20.1471 201.432 20.2969 201.642 20.4855C201.853 20.674 202.019 20.8974 202.132 21.143C202.244 21.3885 202.301 21.6514 202.299 21.9165Z" fill="white"/>
<path opacity="0.6" d="M209.377 21.9165C209.372 22.3125 209.235 22.6983 208.984 23.0254C208.732 23.3525 208.377 23.6063 207.963 23.7548C207.549 23.9033 207.095 23.9399 206.658 23.8599C206.22 23.78 205.819 23.5871 205.506 23.3055C205.192 23.0239 204.979 22.6663 204.893 22.2776C204.808 21.8889 204.854 21.4865 205.026 21.121C205.198 20.7556 205.488 20.4434 205.86 20.2238C206.231 20.0043 206.668 19.8871 207.114 19.8871C207.413 19.8883 207.709 19.9417 207.985 20.0444C208.26 20.1471 208.51 20.2969 208.721 20.4855C208.931 20.674 209.097 20.8974 209.21 21.143C209.322 21.3885 209.379 21.6514 209.377 21.9165Z" fill="white"/>
<path opacity="0.6" d="M216.448 21.9164C216.443 22.313 216.305 22.6993 216.053 23.0267C215.801 23.3541 215.445 23.6079 215.03 23.7559C214.615 23.904 214.16 23.9398 213.722 23.8588C213.285 23.7777 212.884 23.5835 212.571 23.3006C212.257 23.0177 212.045 22.6588 211.962 22.2692C211.878 21.8796 211.927 21.4768 212.101 21.1116C212.275 20.7464 212.568 20.4352 212.941 20.2172C213.315 19.9993 213.753 19.8844 214.2 19.887C214.801 19.8929 215.375 20.1098 215.796 20.4901C216.217 20.8704 216.452 21.3833 216.448 21.9164Z" fill="white"/>
<path opacity="0.6" d="M53.6365 19.306H47.8203V24.5226H53.6365V19.306Z" fill="white"/>
<path d="M90.9764 52.3579H36.625V61.5797H90.9764V52.3579Z" fill="#407BFF"/>
<path opacity="0.2" d="M90.9764 52.3579H36.625V61.5797H90.9764V52.3579Z" fill="black"/>
<path d="M44.441 55.0444H40.1016V58.8932H44.441V55.0444Z" fill="white"/>
<path d="M41.0547 56.9801L41.8661 57.9009L43.4991 56.0369" stroke="#407BFF" stroke-width="1.5" stroke-linecap="round" stroke-linejoin="round"/>
<path d="M88.1068 59.1301H83.7422V56.5106H88.1068V59.1301ZM85.9245 54.5751C85.4335 54.5751 84.9625 54.7478 84.6148 55.0553C84.2671 55.3628 84.0711 55.7801 84.0698 56.2156H84.5738C84.5948 55.9111 84.746 55.6252 84.9965 55.4162C85.247 55.2071 85.578 55.0908 85.922 55.0908C86.2659 55.0908 86.5969 55.2071 86.8475 55.4162C87.098 55.6252 87.2492 55.9111 87.2702 56.2156H87.7742C87.7729 55.7809 87.5776 55.3643 87.231 55.0569C86.8844 54.7495 86.4147 54.5763 85.9245 54.5751Z" fill="#407BFF"/>
<path d="M82.9842 69.4069H28.6328V78.6287H82.9842V69.4069Z" fill="#407BFF"/>
<path opacity="0.4" d="M82.9842 69.4069H28.6328V78.6287H82.9842V69.4069Z" fill="white"/>
<path d="M36.4566 72.089H32.1172V75.9378H36.4566V72.089Z" fill="white"/>
<path d="M80.1224 73.5597H75.7578V76.1747H80.1224V73.5597Z" fill="white"/>
<path d="M79.7853 73.2736H79.2813C79.2813 72.957 79.1395 72.6535 78.8872 72.4296C78.6348 72.2058 78.2925 72.0801 77.9356 72.0801C77.5787 72.0801 77.2364 72.2058 76.9841 72.4296C76.7317 72.6535 76.5899 72.957 76.5899 73.2736H76.0859C76.0859 72.8385 76.2808 72.4212 76.6277 72.1136C76.9746 71.8059 77.4451 71.6331 77.9356 71.6331C78.4262 71.6331 78.8967 71.8059 79.2435 72.1136C79.5904 72.4212 79.7853 72.8385 79.7853 73.2736Z" fill="white"/>
<path d="M91.2576 87.2516H36.9062V96.4734H91.2576V87.2516Z" fill="#407BFF"/>
<path opacity="0.4" d="M91.2576 87.2516H36.9062V96.4734H91.2576V87.2516Z" fill="white"/>
<path d="M44.7223 89.9381H40.3828V93.7869H44.7223V89.9381Z" fill="white"/>
<path d="M41.3359 91.8691L42.1474 92.7945L43.7803 90.9304" stroke="#407BFF" stroke-width="1.5" stroke-linecap="round" stroke-linejoin="round"/>
<g opacity="0.6">
<path d="M88.3959 91.4043H84.0312V94.0193H88.3959V91.4043Z" fill="white"/>
<path d="M88.0663 91.1227H87.5623C87.5735 90.9595 87.547 90.796 87.4844 90.6423C87.4217 90.4885 87.3242 90.3478 87.1979 90.2287C87.0716 90.1096 86.9192 90.0147 86.75 89.9499C86.5808 89.885 86.3984 89.8516 86.2141 89.8516C86.0298 89.8516 85.8474 89.885 85.6782 89.9499C85.509 90.0147 85.3566 90.1096 85.2303 90.2287C85.104 90.3478 85.0065 90.4885 84.9438 90.6423C84.8812 90.796 84.8546 90.9595 84.8659 91.1227H84.3619C84.3488 90.8998 84.387 90.6768 84.4741 90.4673C84.5613 90.2579 84.6956 90.0664 84.8689 89.9045C85.0422 89.7426 85.2508 89.6136 85.4821 89.5255C85.7133 89.4374 85.9624 89.392 86.2141 89.392C86.4658 89.392 86.7149 89.4374 86.9461 89.5255C87.1774 89.6136 87.386 89.7426 87.5593 89.9045C87.7326 90.0664 87.8669 90.2579 87.9541 90.4673C88.0412 90.6768 88.0794 90.8998 88.0663 91.1227Z" fill="white"/>
</g>
<path d="M207.239 77.2028H164.797V101.686H207.239V77.2028Z" fill="#407BFF"/>
<path opacity="0.5" d="M207.239 77.2028H164.797V101.686H207.239V77.2028Z" fill="white"/>
<path d="M205.689 81.7891H166.352V100.456H205.689V81.7891Z" fill="#407BFF"/>
<path d="M198.651 84.5784H169.555V85.383H198.651V84.5784Z" fill="white"/>
<path d="M183.515 87.0415H169.555V87.8461H183.515V87.0415Z" fill="white"/>
<path d="M187.139 89.5H169.555V90.3046H187.139V89.5Z" fill="white"/>
<path d="M175.754 91.9585H169.555V92.7631H175.754V91.9585Z" fill="white"/>
<path d="M173.567 94.4171H169.555V95.2217H173.567V94.4171Z" fill="white"/>
<path d="M208.45 125.48V139.132C208.451 139.501 208.301 139.859 208.029 140.139C207.757 140.419 207.38 140.602 206.968 140.656C206.881 140.663 206.793 140.663 206.706 140.656H186.934C186.473 140.656 186.031 140.493 185.705 140.204C185.379 139.915 185.195 139.523 185.195 139.114V125.48C185.194 125.246 185.254 125.015 185.372 124.805C185.514 124.544 185.735 124.324 186.012 124.17C186.288 124.016 186.608 123.934 186.934 123.933H194.686C195.048 123.928 195.399 123.825 195.694 123.638C195.99 123.447 196.212 123.178 196.329 122.869C196.443 122.559 196.664 122.288 196.962 122.096C197.26 121.904 197.619 121.801 197.987 121.801H202.105C202.473 121.8 202.832 121.903 203.13 122.095C203.428 122.288 203.65 122.558 203.763 122.869C203.877 123.179 204.1 123.449 204.397 123.64C204.695 123.831 205.053 123.934 205.421 123.933H206.686C206.917 123.931 207.146 123.969 207.359 124.046C207.573 124.122 207.768 124.236 207.932 124.38C208.096 124.524 208.226 124.695 208.315 124.884C208.404 125.073 208.45 125.275 208.45 125.48Z" fill="#407BFF"/>
<path opacity="0.3" d="M206.968 126.124V140.656H186.934C186.473 140.656 186.031 140.493 185.705 140.204C185.379 139.915 185.195 139.523 185.195 139.114V125.48C185.194 125.246 185.254 125.015 185.372 124.805H205.481C205.874 124.811 206.248 124.951 206.525 125.198C206.803 125.444 206.962 125.776 206.968 126.124Z" fill="white"/>
<path d="M161.268 105.387V122.458L157.508 125.793H143.719V105.387H161.268Z" fill="#407BFF"/>
<path opacity="0.4" d="M161.268 105.387V122.458L157.508 125.793H143.719V105.387H161.268Z" fill="white"/>
<path d="M161.268 122.458H157.508V125.793L161.268 122.458Z" fill="#407BFF"/>
<path d="M159.141 108.851H145.906V109.49H159.141V108.851Z" fill="#407BFF"/>
<path d="M157.04 110.813H145.906V111.453H157.04V110.813Z" fill="#407BFF"/>
<path d="M159.141 112.771H145.906V113.411H159.141V112.771Z" fill="#407BFF"/>
<path d="M150.845 114.734H145.906V115.373H150.845V114.734Z" fill="#407BFF"/>
<path d="M149.107 116.696H145.906V117.335H149.107V116.696Z" fill="#407BFF"/>
<path d="M173.091 40.2261H137.211V66.5192H173.091V40.2261Z" fill="#407BFF"/>
<path opacity="0.6" d="M137.211 40.2261V66.5192H173.091V40.2261H137.211ZM171.921 65.4822H138.385V41.2631H171.921V65.4822Z" fill="white"/>
<path opacity="0.3" d="M138.391 58.3033L148.672 51.6786L156.313 58.3033L163.954 54.4322L171.927 58.7861V65.4823H138.391V58.3033Z" fill="white"/>
<path opacity="0.6" d="M162.612 47.2398C162.611 47.6701 162.466 48.0906 162.196 48.448C161.926 48.8054 161.542 49.0837 161.093 49.2478C160.645 49.4119 160.151 49.4544 159.676 49.3699C159.2 49.2854 158.763 49.0777 158.42 48.773C158.077 48.4684 157.844 48.0805 157.75 47.6583C157.656 47.2362 157.705 46.7987 157.89 46.4012C158.076 46.0037 158.391 45.6639 158.794 45.4249C159.198 45.1859 159.672 45.0584 160.158 45.0583C160.48 45.0583 160.8 45.1148 161.098 45.2245C161.396 45.3342 161.667 45.4949 161.895 45.6975C162.123 45.9002 162.304 46.1407 162.427 46.4053C162.55 46.6699 162.613 46.9535 162.612 47.2398Z" fill="white"/>
<path d="M175.438 67.61V68.504H174.43" stroke="#263238" stroke-miterlimit="10"/>
<path d="M172.844 68.5084H136.758" stroke="#263238" stroke-miterlimit="10" stroke-dasharray="4.18 3.14"/>
<path d="M135.969 68.504H134.961V67.61" stroke="#263238" stroke-miterlimit="10"/>
<path d="M134.961 66.3182V39.8284" stroke="#263238" stroke-miterlimit="10" stroke-dasharray="3.85 2.89"/>
<path d="M134.961 39.1802V38.2861H135.969" stroke="#263238" stroke-miterlimit="10"/>
<path d="M137.547 38.2861H173.633" stroke="#263238" stroke-miterlimit="10" stroke-dasharray="4.18 3.14"/>
<path d="M174.43 38.2861H175.438V39.1802" stroke="#263238" stroke-miterlimit="10"/>
<path d="M175.438 40.4719V66.9662" stroke="#263238" stroke-miterlimit="10" stroke-dasharray="3.85 2.89"/>
<path d="M176.228 37.5798H174.641V38.9879H176.228V37.5798Z" fill="#263238"/>
<path d="M176.228 67.8022H174.641V69.2103H176.228V67.8022Z" fill="#263238"/>
<path d="M135.752 67.8022H134.164V69.2103H135.752V67.8022Z" fill="#263238"/>
<path d="M135.752 37.5798H134.164V38.9879H135.752V37.5798Z" fill="#263238"/>
<path d="M155.947 37.5798H154.359V38.9879H155.947V37.5798Z" fill="#263238"/>
<path d="M155.994 67.8022H154.406V69.2103H155.994V67.8022Z" fill="#263238"/>
<path d="M176.228 52.6932H174.641V54.1013H176.228V52.6932Z" fill="#263238"/>
<path d="M135.752 52.6932H134.164V54.1013H135.752V52.6932Z" fill="#263238"/>
<path d="M88.2013 81.6727L82.8388 85.5349C82.8388 85.5349 81.5284 85.5573 81.1151 85.9417C80.7018 86.3261 79.0991 89.1825 79.346 89.5714C79.593 89.9603 82.2138 90.7292 82.7732 90.2687C83.3327 89.8083 84.2852 87.1665 84.2852 86.8849L91.1396 82.8081L88.2013 81.6727Z" fill="#EBB376"/>
<path d="M85.3203 83.4563L86.5198 85.7763C86.5198 85.7763 93.8934 82.7366 95.491 80.9486C95.8993 80.5016 96.4638 79.7551 97.0736 78.9192C98.0816 77.5379 99.2106 75.875 99.9968 74.7083C100.581 73.8367 100.975 73.2421 100.975 73.2421L96.8014 67.4042C95.8892 68.0255 93.097 78.0028 92.5981 78.5392C92.0991 79.0756 85.3203 83.4563 85.3203 83.4563Z" fill="#407BFF"/>
<mask id="mask0_57_114471" style="mask-type:luminance" maskUnits="userSpaceOnUse" x="85" y="67" width="16" height="19">
<path d="M85.3203 83.4563L86.5198 85.7763C86.5198 85.7763 93.8934 82.7366 95.491 80.9486C95.8993 80.5016 96.4638 79.7551 97.0736 78.9192C98.0816 77.5379 99.2106 75.875 99.9968 74.7083C100.581 73.8367 100.975 73.2421 100.975 73.2421L96.8014 67.4042C95.8892 68.0255 93.097 78.0028 92.5981 78.5392C92.0991 79.0756 85.3203 83.4563 85.3203 83.4563Z" fill="white"/>
</mask>
<g mask="url(#mask0_57_114471)">
<path opacity="0.1" d="M97.0737 78.9013C98.0817 77.52 99.2107 75.8571 99.9969 74.6904L98.0565 70.4438C98.0565 70.4438 97.0031 75.3163 97.0737 78.9013Z" fill="black"/>
</g>
<path d="M131.07 59.6039L136.352 55.9653C136.352 55.9653 136.781 54.8656 137.32 54.6242C137.859 54.3828 141.407 53.9314 141.755 54.2398C142.103 54.5482 142.118 57.0202 141.453 57.3689C140.787 57.7175 137.658 57.7086 137.36 57.6058L131.589 61.3428L131.07 59.6039Z" fill="#EBB376"/>
<path d="M86.4531 159.622L89.6132 160.119L90.9135 156.292L92.0929 152.779L88.449 151.648L87.3906 155.868L86.4531 159.622Z" fill="#EBB376"/>
<path opacity="0.2" d="M87.3672 155.957L90.8952 156.368L92.0846 152.819L88.4407 151.666L87.3672 155.957Z" fill="black"/>
<path d="M107.57 159.69H110.786L111.31 155.868L111.789 152.3L107.974 151.786L107.762 155.979L107.57 159.69Z" fill="#EBB376"/>
<path opacity="0.2" d="M107.766 156.23L111.314 156.091L111.793 152.412L107.977 151.84L107.766 156.23Z" fill="black"/>
<path d="M87.0703 152.886L92.2716 153.7C97.5182 142.104 101.253 132.422 103.864 124.389C105.285 120.053 106.409 116.2 107.261 112.767L107.039 125.395V153.874H112.285C125.132 99.7857 116.03 87.2113 116.03 87.2113L100.658 84.9315C100.049 87.4559 99.6193 90.0119 99.373 92.5843L98.6774 97.1036L92.6698 124.631L87.0703 152.886Z" fill="#263238"/>
<path d="M93.0918 153.132L86.6406 151.232L86.7263 153.668L92.0637 155.175L93.0918 153.132Z" fill="#407BFF"/>
<path opacity="0.6" d="M93.0918 153.132L86.6406 151.232L86.7263 153.668L92.0637 155.175L93.0918 153.132Z" fill="white"/>
<path d="M113.005 153.396L106.281 152.52L106.841 154.907L112.39 155.568L113.005 153.396Z" fill="#407BFF"/>
<path opacity="0.6" d="M113.005 153.396L106.281 152.52L106.841 154.907L112.39 155.568L113.005 153.396Z" fill="white"/>
<path opacity="0.2" d="M103.188 126.512C103.429 125.788 103.692 125.082 103.913 124.389C105.204 120.451 106.06 116.915 107.068 113.737L107.572 107.89C107.572 107.89 104.281 101.466 105.511 96.9471C105.4 97.2019 103.223 102.128 104.08 107.05C104.28 113.548 103.982 120.05 103.188 126.512Z" fill="black"/>
<path d="M102.745 61.5171C102.788 61.5437 102.834 61.5662 102.882 61.5841C103.524 61.915 104.236 62.1278 104.973 62.21C107.12 62.3977 108.501 61.982 109.308 61.0388C110.426 59.6352 110.421 57.3778 109.847 54.7181C109.658 53.6558 109.28 52.6268 108.728 51.6694C108.728 51.6694 108.728 51.6292 108.728 51.6203C108.728 51.6113 108.683 51.5443 108.657 51.513C108.32 50.9756 107.835 50.5219 107.249 50.1931C106.663 49.8644 105.993 49.6712 105.301 49.6311C104.698 49.5821 104.091 49.5926 103.491 49.6624C97.5845 50.2837 97.781 59.0451 102.745 61.5171Z" fill="#EBB376"/>
<path opacity="0.2" d="M102.875 61.5841C103.52 61.8915 104.228 62.0801 104.957 62.1384C107.104 62.3261 108.485 61.8478 109.281 60.8912C108.076 61.3091 106.75 61.3656 105.506 61.0522C105.051 60.9575 104.577 60.9563 104.121 61.0484C103.665 61.1406 103.239 61.3238 102.875 61.5841Z" fill="black"/>
<path d="M102.434 65.862C101.905 67.3193 104.017 68.1194 104.017 68.1194C107.731 67.0779 108.578 65.4373 108.578 65.4373C105.756 63.8013 107.066 59.9883 107.066 59.9883L106.431 60.1984L102.102 60.5649C102.102 60.5649 103.059 62.6748 103.165 63.1442C103.684 65.634 102.434 65.862 102.434 65.862Z" fill="#EBB376"/>
<path d="M108.733 51.6337C108.733 51.6337 109.595 55.2589 105.91 57.2839C105.91 57.2839 104.792 61.2802 102.322 61.6199C98.9602 62.0669 95.3667 58.169 95.8959 53.6989C96.5864 47.9056 106.122 46.3411 108.733 51.6337Z" fill="#263238"/>
<path d="M107.734 56.001C107.648 55.4288 106.988 54.5303 106.005 54.7762C105.022 55.022 104.75 57.3644 107.371 57.5744C107.744 57.6057 107.91 57.1945 107.734 56.001Z" fill="#EBB376"/>
<path d="M111.126 159.175H107.543C107.468 159.174 107.395 159.196 107.337 159.238C107.279 159.28 107.239 159.338 107.225 159.403L106.489 162.349C106.474 162.412 106.472 162.477 106.485 162.54C106.498 162.604 106.525 162.664 106.565 162.718C106.604 162.772 106.655 162.819 106.715 162.855C106.774 162.892 106.842 162.917 106.913 162.93C106.953 162.935 106.993 162.935 107.034 162.93C108.5 162.93 108.621 162.832 110.461 162.832C111.595 162.832 115.022 162.935 116.589 162.935C118.157 162.935 118.359 161.563 117.718 161.437C114.841 160.879 112.678 160.096 111.756 159.377C111.583 159.241 111.357 159.169 111.126 159.175Z" fill="#263238"/>
<path d="M111.387 159.623C111.369 159.62 111.353 159.611 111.341 159.599C111.329 159.587 111.322 159.572 111.321 159.556C111.319 159.541 111.321 159.526 111.328 159.512C111.336 159.499 111.347 159.487 111.362 159.48C111.498 159.404 112.702 158.746 113.115 158.939C113.162 158.958 113.201 158.989 113.228 159.028C113.255 159.067 113.269 159.112 113.267 159.158C113.28 159.236 113.27 159.316 113.238 159.39C113.205 159.464 113.151 159.529 113.08 159.578C112.872 159.707 112.618 159.767 112.365 159.748C112.034 159.739 111.706 159.697 111.387 159.623ZM111.644 159.515C112.08 159.644 112.555 159.623 112.974 159.457C113.018 159.422 113.051 159.378 113.072 159.329C113.092 159.28 113.098 159.227 113.09 159.176C113.09 159.108 113.06 159.082 113.035 159.082C112.999 159.065 112.959 159.058 112.919 159.059C112.464 159.134 112.03 159.284 111.639 159.502L111.644 159.515Z" fill="#407BFF"/>
<path d="M111.353 159.622C111.34 159.615 111.329 159.604 111.322 159.591C111.315 159.579 111.312 159.565 111.313 159.551C111.313 159.506 111.408 158.554 111.817 158.241C111.868 158.202 111.928 158.173 111.994 158.156C112.059 158.139 112.127 158.134 112.195 158.143C112.262 158.142 112.327 158.162 112.378 158.2C112.43 158.237 112.465 158.29 112.477 158.348C112.558 158.697 111.812 159.426 111.424 159.609H111.383C111.374 159.615 111.364 159.62 111.353 159.622ZM111.953 158.335C111.689 158.632 111.534 158.994 111.509 159.372C111.897 159.113 112.371 158.563 112.326 158.348C112.326 158.326 112.326 158.268 112.195 158.268H112.154C112.079 158.268 112.007 158.294 111.953 158.34V158.335Z" fill="#407BFF"/>
<path d="M89.7405 159.175H86.152C86.0778 159.176 86.006 159.199 85.9483 159.24C85.8906 159.282 85.8505 159.339 85.8345 159.403L85.0987 162.349C85.0831 162.412 85.0818 162.477 85.0947 162.54C85.1076 162.604 85.1345 162.664 85.1739 162.718C85.2132 162.772 85.2643 162.819 85.324 162.855C85.3838 162.891 85.4511 162.917 85.522 162.93C85.5622 162.935 85.6028 162.935 85.643 162.93C87.1147 162.93 87.2306 162.832 89.0752 162.832C90.2092 162.832 93.6112 162.935 95.1988 162.935C96.7864 162.935 96.9729 161.562 96.3328 161.437C93.455 160.879 91.2928 160.096 90.3655 159.377C90.1939 159.241 89.9702 159.169 89.7405 159.175Z" fill="#263238"/>
<path d="M89.9877 159.623C89.9698 159.62 89.9537 159.611 89.9418 159.599C89.9299 159.587 89.923 159.572 89.9221 159.556C89.9208 159.54 89.9244 159.525 89.9324 159.512C89.9404 159.498 89.9526 159.487 89.9675 159.48C90.0985 159.404 91.3031 158.746 91.7214 158.939C91.7669 158.959 91.8051 158.991 91.8318 159.029C91.8585 159.068 91.8726 159.112 91.8726 159.158C91.8864 159.236 91.8764 159.316 91.8436 159.39C91.8108 159.464 91.7565 159.529 91.6861 159.578C91.4768 159.706 91.224 159.766 90.9705 159.748C90.6385 159.74 90.3088 159.698 89.9877 159.623ZM90.2447 159.515C90.6808 159.644 91.1555 159.623 91.5753 159.457C91.6195 159.422 91.6535 159.379 91.6746 159.329C91.6956 159.28 91.7031 159.228 91.6962 159.176C91.6962 159.108 91.6609 159.082 91.6357 159.082C91.602 159.065 91.5635 159.057 91.5249 159.059C91.0708 159.135 90.6367 159.285 90.2447 159.502V159.515Z" fill="#407BFF"/>
<path d="M89.9674 159.622C89.9529 159.616 89.9409 159.605 89.9329 159.593C89.9248 159.58 89.9211 159.565 89.922 159.551C89.922 159.506 90.0178 158.554 90.4512 158.241C90.5013 158.201 90.5607 158.172 90.6252 158.155C90.6897 158.138 90.7577 158.134 90.8242 158.143C90.8917 158.142 90.9575 158.162 91.01 158.199C91.0625 158.237 91.0984 158.29 91.1115 158.348C91.1871 158.697 90.4411 159.426 90.0581 159.609H90.0127L89.9674 159.622ZM90.5621 158.335C90.2997 158.633 90.1467 158.995 90.1236 159.372C90.5067 159.113 90.9804 158.563 90.9351 158.348C90.9351 158.326 90.9351 158.268 90.8091 158.268H90.7637C90.6887 158.268 90.6167 158.294 90.5621 158.34V158.335Z" fill="#407BFF"/>
<path d="M116.055 87.2694C116.055 87.2694 118.989 71.4228 113.948 64.3198C113.948 64.3198 103.869 63.7655 96.8125 67.3908C96.8125 67.3908 99.7357 74.4446 100.174 87.2694H116.055Z" fill="#407BFF"/>
<mask id="mask1_57_114471" style="mask-type:luminance" maskUnits="userSpaceOnUse" x="96" y="64" width="21" height="24">
<path d="M116.055 87.2692C116.055 87.2692 118.989 71.4227 113.948 64.3197C113.948 64.3197 103.869 63.7654 96.8125 67.3907C96.8125 67.3907 99.7357 74.4445 100.174 87.2692H116.055Z" fill="white"/>
</mask>
<g mask="url(#mask1_57_114471)">
<path opacity="0.1" d="M116.974 75.1373C117.191 72.9872 116.47 70.9175 116.369 69.0937C115.108 68.1066 113.994 66.9816 113.053 65.7456C113.053 65.7456 112.141 72.1691 116.974 75.1373Z" fill="black"/>
</g>
<path d="M112.698 64.2886C112.698 64.2886 122.672 63.2515 124.174 62.6928C125.111 62.3441 132.444 58.093 132.444 58.093L134.163 60.3862C134.163 60.3862 126.664 65.7503 125.393 66.3761C122.42 67.8244 115.737 69.8717 115.737 69.8717C115.737 69.8717 111.7 67.3595 112.698 64.2886Z" fill="#407BFF"/>
<path d="M108.576 54.0341C108.576 54.0341 112.724 50.3552 108.813 47.8788C104.902 45.4023 100.97 48.6342 100.97 48.6342C100.97 48.6342 91.6162 50.6368 93.607 56.1574C95.5978 61.678 96.8981 62.1429 93.9346 64.9725C90.9711 67.802 87.9471 72.0084 90.9761 74.6905C94.0052 77.3725 104.584 74.6145 107.805 70.569C111.025 66.5236 105.335 57.8292 108.576 54.0341Z" fill="#263238"/>
<path d="M100.167 87.2693L100.102 85.7673L116.24 86.1294V87.5196L100.167 87.2693Z" fill="black"/>
<path d="M105.283 85.8702H104.633V87.3499H105.283V85.8702Z" fill="#263238"/>
<path d="M112.731 86.0355H112.156V87.6537H112.731V86.0355Z" fill="#263238"/>
<path d="M101.096 85.7897H100.547V87.5196H101.096V85.7897Z" fill="#263238"/>
</svg>
