<svg width="228" height="42" viewBox="0 0 228 42" fill="none" xmlns="http://www.w3.org/2000/svg">
<path d="M80.9735 35.2655C80.9735 31.8784 83.719 29.1329 87.106 29.1329H96.8329V24.9447H89.085C82.7879 24.9447 80.1164 22.3736 80.1164 16.8661C80.1164 11.3258 82.7879 8.68884 89.085 8.68884H96.3591C99.7166 8.68884 102.439 11.4113 102.439 14.7688V14.8559H87.4696V18.9438H95.1846C101.482 18.9438 104.153 21.3833 104.153 26.9895C104.153 32.5282 101.482 35.2655 95.1846 35.2655H80.9735Z" fill="white"/>
<path d="M110.945 27.4829V30.1873H119.287C122.092 30.1873 124.365 32.4607 124.365 35.2654H113.485C106.956 35.2654 104.451 33.2536 104.451 26.8249V23.1648C104.451 16.7016 106.956 14.8888 113.485 14.8888H115.629C122.158 14.8888 124.663 16.9006 124.663 23.3293V27.4846H110.945V27.4829ZM110.945 19.8337V23.0315H118.167V19.8337H110.945Z" fill="white"/>
<path d="M137.422 35.2655H132.376C132.376 38.5242 129.735 41.1677 126.474 41.1677H125.518V15.0533H137.422C143.984 15.0533 146.456 17.0652 146.456 23.5267V26.9895C146.456 33.451 143.984 35.2655 137.422 35.2655ZM139.631 20.1644H132.376V30.1873H139.631V20.1644Z" fill="white"/>
<path d="M161.294 28.4075V20.1644H154.173V28.4075C154.173 32.1959 151.101 35.2655 147.315 35.2655V15.0533H161.162C165.976 15.0533 168.152 17.2297 168.152 22.0446V35.2671C164.365 35.2655 161.294 32.1943 161.294 28.4075Z" fill="white"/>
<path d="M178.045 14.8888H181.276C187.838 14.8888 190.31 16.9006 190.31 23.3293V26.9894C190.31 33.4526 187.838 35.4628 181.276 35.4628H178.045C171.516 35.4628 169.011 33.451 169.011 26.9894V23.3293C169.011 16.899 171.516 14.8888 178.045 14.8888ZM183.386 20.1643H175.869V30.1873H183.386V20.1643Z" fill="white"/>
<path d="M227.602 15.0533L220.644 34.54C218.831 39.651 216.521 41.1677 210.588 41.1677H205.707C205.707 39.7563 206.28 38.4781 207.204 37.5536C208.13 36.6275 209.407 36.0567 210.818 36.0567H212.534L206.271 20.1643H200.631V30.1889H201.29C204.095 30.1889 206.367 32.4607 206.367 35.2654H202.444C195.849 35.2654 193.771 33.4855 193.771 27.353V20.1643H190.706V15.0533H193.771V9.38135H194.959C198.091 9.38135 200.629 11.9212 200.629 15.0517H203.835C208.433 15.0517 212.508 18.0077 213.934 22.3785L216.257 29.4931L219.07 20.819C220.185 17.381 223.388 15.0517 227.003 15.0517H227.602V15.0533Z" fill="white"/>
<path d="M20.1151 11.8193H8.58854L0 23.5729L10.0575 35.3264H20.1151C15.2311 33.4889 11.9789 28.7908 11.9789 23.5729C11.9789 18.3549 15.2311 13.6568 20.1151 11.8193Z" fill="#002087"/>
<path d="M43.6205 0H56.7574C61.1446 5.91049 65.5335 11.821 69.9207 17.7315C65.5236 23.5745 61.1265 29.4159 56.7295 35.2589H43.6205C44.0959 34.976 53.6369 29.0754 53.6566 17.6657C53.6763 6.20988 44.0778 0.271425 43.6205 0Z" fill="#002087"/>
<path d="M47.9797 6.27893L32.0594 31.0691C30.3815 33.6813 27.5011 35.2605 24.4085 35.2605H20.8372L36.9253 10.4391C38.6065 7.84498 41.477 6.28058 44.5548 6.28058H47.9797V6.27893Z" fill="#0034DB"/>
</svg>
